<?xml version="1.0" encoding="UTF-8" standalone="no"?>
<svg
   width="512"
   height="512"
   viewBox="0 0 512 512"
   version="1.1"
   id="svg2389"
   sodipodi:docname="favicon.svg"
   inkscape:version="1.2.1 (9c6d41e410, 2022-07-14)"
   xmlns:inkscape="http://www.inkscape.org/namespaces/inkscape"
   xmlns:sodipodi="http://sodipodi.sourceforge.net/DTD/sodipodi-0.dtd"
   xmlns="http://www.w3.org/2000/svg"
   xmlns:svg="http://www.w3.org/2000/svg">
  <defs
     id="defs2393" />
  <sodipodi:namedview
     id="namedview2391"
     pagecolor="#7c7c7c"
     bordercolor="#000000"
     borderopacity="0.25"
     inkscape:showpageshadow="2"
     inkscape:pageopacity="0"
     inkscape:pagecheckerboard="0"
     inkscape:deskcolor="#404040"
     showgrid="false"
     inkscape:zoom="0.83915848"
     inkscape:cx="299.10918"
     inkscape:cy="238.334"
     inkscape:window-width="1338"
     inkscape:window-height="854"
     inkscape:window-x="1082"
     inkscape:window-y="188"
     inkscape:window-maximized="0"
     inkscape:current-layer="svg2389" />
  <!-- Background -->
  <!-- Building / Chamber of Commerce Symbol -->
  <path
     style="color:#000000;fill:#ffffff;stroke:#ffffff;stroke-width:13;stroke-linecap:round;stroke-dasharray:none;stroke-opacity:1;paint-order:markers stroke fill"
     d="m 190.28193,196.94008 c -33.06278,2e-5 -59.9447,27.02808 -59.9447,60.21526 0,33.18717 26.88192,60.21525 59.9447,60.21525 33.06281,0 59.94474,-27.02808 59.94474,-60.21525 0,-33.18718 -26.88193,-60.21526 -59.94474,-60.21526 z m 0,9.52246 c 27.89159,0 50.4223,22.62645 50.4223,50.6928 0,28.06636 -22.53071,50.69535 -50.4223,50.69535 -27.89159,0 -50.42483,-22.62901 -50.42483,-50.69535 0,-28.06635 22.53324,-50.69278 50.42483,-50.6928 z"
     id="path231" />
  <g
     id="circle949"
     transform="matrix(3.7795273,0,0,3.7795273,-311.55414,0)"
     style="fill:#ffffff;stroke:#ffffff;stroke-opacity:1;stroke-width:3.43958357;stroke-dasharray:none">
    <g
       id="path3611">
      <path
         style="color:#000000;stroke:none;stroke-linecap:round;-inkscape-stroke:none;paint-order:markers stroke fill"
         d="m 147.75,79.816406 c -6.11977,0 -11.66121,2.61352 -15.54883,6.777344 -5.01665,5.113543 4.18297,4.72115 6.11328,3.191406 2.55818,-2.136087 5.83427,-3.416015 9.43555,-3.416015 8.18875,-5e-6 14.76367,6.599786 14.76367,14.855469 0,8.2557 -6.57484,14.85352 -14.76367,14.85352 -0.59401,0 -1.18016,-0.037 -1.75781,-0.10547 -3.01653,-0.51192 -9.665,4.44491 -3.42774,6.01562 1.66054,0.41826 3.39925,0.64258 5.18555,0.64258 11.7469,0 21.31836,-9.62725 21.31836,-21.40625 10e-6,-11.778991 -9.57148,-21.408204 -21.31836,-21.408204 z"
         id="path6111"
         sodipodi:nodetypes="sccsssccsss" />
      <path
         style="color:#000000;stroke:none;stroke-width:3.43958;stroke-linecap:round;-inkscape-stroke:none;paint-order:markers stroke fill"
         d="m 147.74917,81.537033 c -5.63133,0 -10.71323,2.399077 -14.2908,6.230826 a 18.041985,18.13053 0 0 1 3.75434,0.696999 c 2.85494,-2.383888 6.52597,-3.815282 10.53646,-3.815282 9.11894,-5e-6 16.48513,7.398236 16.48513,16.574314 0,9.17609 -7.36619,16.57366 -16.48513,16.57366 -0.66348,0 -1.31732,-0.0402 -1.96007,-0.11635 a 18.041985,18.13053 0 0 1 -2.80456,2.64008 c 1.52585,0.38433 3.12164,0.5897 4.76463,0.5897 10.80964,0 19.59855,-8.83678 19.59855,-19.68709 1e-5,-10.850295 -8.78891,-19.686857 -19.59855,-19.686857 z"
         id="path6113" />
    </g>
  </g>
  <g
     id="path1074"
     transform="matrix(3.7795273,0,0,3.7795273,-311.55414,0)"
     style="fill:#ffffff;stroke-width:1.00012507;stroke-dasharray:none">
    <g
       id="path3605">
      <path
         style="color:#000000;stroke-linecap:round;-inkscape-stroke:none;paint-order:markers stroke fill"
         d="m 147.75,13.589844 c -1.73575,0 -3.42587,0.210096 -5.04297,0.605469 -6.94895,1.76143 -0.76296,6.310765 3.37109,6.041015 0.55011,-0.06188 1.10824,-0.09375 1.67188,-0.09375 8.18883,0 14.76367,6.597825 14.76367,14.853516 0,8.255695 -6.57495,14.855473 -14.76367,14.855468 -3.64907,0 -6.96445,-1.31427 -9.53711,-3.501953 -2.15843,-2.075877 -10.48606,-1.60149 -6.14453,3.132813 3.8941,4.247046 9.4922,6.919922 15.68164,6.919922 11.74688,0 21.31837,-9.62725 21.31836,-21.40625 0,-11.778997 -9.57146,-21.40625 -21.31836,-21.40625 z"
         id="path6117"
         sodipodi:nodetypes="sccsssccsss" />
      <path
         style="color:#000000;stroke-width:3.43958;stroke-linecap:round;-inkscape-stroke:none;paint-order:markers stroke fill"
         d="m 147.74917,15.308852 c -1.59619,0 -3.14766,0.194301 -4.63393,0.557687 a 18.041985,18.13053 0 0 1 2.771,2.66105 c 0.61151,-0.06879 1.23283,-0.105312 1.86293,-0.105312 9.11894,0 16.48513,7.397574 16.48513,16.573659 0,9.176089 -7.36619,16.574548 -16.48513,16.574543 -4.06388,0 -7.77888,-1.470296 -10.64972,-3.911543 a 18.041985,18.13053 0 0 1 -3.76295,0.661676 c 3.58351,3.908302 8.7172,6.362187 14.41267,6.362187 10.80964,0 19.59856,-8.836558 19.59855,-19.686863 0,-10.850304 -8.78891,-19.687084 -19.59855,-19.687084 z"
         id="path6119" />
    </g>
  </g>
  <rect
     style="fill:#ffffff;stroke:none;stroke-width:35.5798;stroke-linecap:round;stroke-dasharray:none;stroke-opacity:1;paint-order:markers stroke fill;stop-color:#000000"
     id="rect1138"
     width="24.928761"
     height="8.3941965"
     x="363.22586"
     y="393.62189"
     ry="4.1970983" />
  <rect
     style="fill:#ffffff;stroke:none;stroke-width:35.5798;stroke-linecap:round;stroke-dasharray:none;stroke-opacity:1;paint-order:markers stroke fill;stop-color:#000000"
     id="rect1192"
     width="49.359791"
     height="9.6536407"
     x="361.02304"
     y="365.30905"
     ry="4.8268204" />
  <rect
     style="fill:#ffffff;stroke:none;stroke-width:35.5799;stroke-linecap:round;stroke-dasharray:none;stroke-opacity:1;paint-order:markers stroke fill;stop-color:#000000"
     id="rect1194"
     width="77.395454"
     height="8.4687405"
     x="356.12994"
     y="338.18112"
     ry="3.3596706" />
  <rect
     style="fill:#ffffff;stroke:none;stroke-width:35.5799;stroke-linecap:round;stroke-dasharray:none;stroke-opacity:1;paint-order:markers stroke fill;stop-color:#000000"
     id="rect1196"
     width="105.6267"
     height="9.7609196"
     x="342.0455"
     y="309.76099"
     ry="4.8804598" />
  <rect
     style="fill:#ffffff;stroke:none;stroke-width:35.5799;stroke-linecap:round;stroke-dasharray:none;stroke-opacity:1;paint-order:markers stroke fill;stop-color:#000000"
     id="rect1198"
     width="136.37808"
     height="9.9052725"
     x="317.15204"
     y="281.19656"
     ry="4.9526362" />
  <rect
     style="fill:#ffffff;stroke:none;stroke-width:35.5799;stroke-linecap:round;stroke-dasharray:none;stroke-opacity:1;paint-order:markers stroke fill;stop-color:#000000"
     id="rect1200"
     width="176.71834"
     height="8.3906689"
     x="282.9754"
     y="254.14674"
     ry="4.1953344" />
  <rect
     style="fill:#ffffff;stroke:none;stroke-width:35.5799;stroke-linecap:round;stroke-dasharray:none;stroke-opacity:1;paint-order:markers stroke fill;stop-color:#000000"
     id="rect1202"
     width="132.54895"
     height="9.211525"
     x="320.98117"
     y="226.27603"
     ry="4.6057625" />
  <rect
     style="fill:#ffffff;stroke:none;stroke-width:35.5799;stroke-linecap:round;stroke-dasharray:none;stroke-opacity:1;paint-order:markers stroke fill;stop-color:#000000"
     id="rect1204"
     width="97.414131"
     height="10.316842"
     x="344.70105"
     y="197.3"
     ry="5.158421" />
  <rect
     style="fill:#ffffff;stroke:none;stroke-width:35.5799;stroke-linecap:round;stroke-dasharray:none;stroke-opacity:1;paint-order:markers stroke fill;stop-color:#000000"
     id="rect1206"
     width="75.238243"
     height="10.316842"
     x="355.789"
     y="168.32399"
     ry="5.158421" />
  <rect
     style="fill:#ffffff;stroke:none;stroke-width:35.5798;stroke-linecap:round;stroke-dasharray:none;stroke-opacity:1;paint-order:markers stroke fill;stop-color:#000000"
     id="rect1940"
     width="53.757553"
     height="10.316842"
     x="361.11911"
     y="139.34796"
     ry="5.158421" />
  <rect
     style="fill:#ffffff;stroke:none;stroke-width:35.5797;stroke-linecap:round;stroke-dasharray:none;stroke-opacity:1;paint-order:markers stroke fill;stop-color:#000000"
     id="rect1942"
     width="38.47472"
     height="10.316842"
     x="359.32849"
     y="110.37194"
     ry="5.158421" />
  <path
     id="path1084"
     style="color:#000000;fill:#ffffff;stroke-width:3.78;stroke-linecap:square;paint-order:stroke fill markers;opacity:1;stroke:none;stroke-dasharray:none"
     d="M 256 0 C 114.8021 1.5999986e-05 4.999995e-05 115.42719 0 257.15625 C 0 398.88536 114.8021 514.31055 256 514.31055 C 397.19798 514.31055 512 398.88536 512 257.15625 C 512 115.42714 397.19798 -1.799998e-05 256 0 z M 256 25.398438 C 383.2525 25.398422 486.7168 129.42508 486.7168 257.15625 C 486.7168 384.88742 383.2525 488.91211 256 488.91211 C 128.74758 488.91211 25.283203 384.88742 25.283203 257.15625 C 25.283248 129.42513 128.74758 25.398451 256 25.398438 z " />
</svg>
