<svg xmlns="http://www.w3.org/2000/svg" width="512" height="512" viewBox="0 0 512 512">
  <!-- Background -->
  <rect width="512" height="512" fill="#1a202c" rx="100" ry="100" />
  
  <!-- Building / Chamber of Commerce Symbol -->
  <g transform="translate(80, 70) scale(0.7)">
    <!-- Building outline -->
    <rect x="100" y="150" width="300" height="250" fill="#4299e1" rx="10" ry="10" />
    
    <!-- Windows -->
    <rect x="130" y="190" width="50" height="50" fill="#ebf8ff" rx="5" ry="5" />
    <rect x="220" y="190" width="50" height="50" fill="#ebf8ff" rx="5" ry="5" />
    <rect x="310" y="190" width="50" height="50" fill="#ebf8ff" rx="5" ry="5" />
    
    <rect x="130" y="270" width="50" height="50" fill="#ebf8ff" rx="5" ry="5" />
    <rect x="220" y="270" width="50" height="50" fill="#ebf8ff" rx="5" ry="5" />
    <rect x="310" y="270" width="50" height="50" fill="#ebf8ff" rx="5" ry="5" />
    
    <!-- Door -->
    <rect x="220" y="350" width="50" height="50" fill="#fff" />
    
    <!-- Roof -->
    <polygon points="100,150 250,70 400,150" fill="#63b3ed" />

    <!-- Magnifying glass -->
    <circle cx="350" cy="350" r="70" fill="none" stroke="#f687b3" stroke-width="20" />
    <line x1="400" y1="400" x2="450" y2="450" stroke="#f687b3" stroke-width="25" stroke-linecap="round" />
  </g>
</svg>